name C:\Users\u0101727\Documents\MyRepositories\upper-imu-dc\Results\main_tracking\Case_44\kinematics_filtered.mot
datacolumns 10
datarows 23
range 3.50000000 3.72000000
endheader 
time	clav_prot	clav_elev	scapula_abduction	scapula_elevation	scapula_upward_rot	scapula_winging	plane_elv	shoulder_elv	axial_rot	
          3.50000000	        -44.53697959	          8.99574091	          0.81908319	         -1.64867313	         84.37215341	        -11.82235605	         37.49674565	         87.72577883	         -7.34505492	
          3.51000000	        -44.54061447	          8.99729788	          0.80655009	         -1.64891971	         84.36434812	        -11.82653304	         37.52013363	         87.69958890	         -7.30332861	
          3.52000000	        -44.54330125	          8.99845792	          0.79503254	         -1.64946917	         84.35562862	        -11.83015302	         37.54355139	         87.67306008	         -7.26233811	
          3.53000000	        -44.54503302	          8.99920483	          0.78455036	         -1.65033110	         84.34600056	        -11.83320594	         37.56689585	         87.64619538	         -7.22213930	
          3.54000000	        -44.54579644	          8.99952672	          0.77512842	         -1.65151235	         84.33546327	        -11.83567985	         37.59009203	         87.61899965	         -7.18279104	
          3.55000000	        -44.54557161	          8.99941698	          0.76679650	         -1.65301647	         84.32400957	        -11.83756108	         37.61309435	         87.59147890	         -7.14435678	
          3.56000000	        -44.54433182	          8.99887509	          0.75958921	         -1.65484313	         84.31162523	        -11.83883435	         37.63588739	         87.56363961	         -7.10690686	
          3.57000000	        -44.54204320	          8.99790718	          0.75354578	         -1.65698787	         84.29828838	        -11.83948284	         37.65848620	         87.53548777	         -7.07052121	
          3.58000000	        -44.53866443	          8.99652631	          0.74871001	         -1.65944190	         84.28396855	        -11.83948824	         37.68093626	         87.50702779	         -7.03529224	
          3.59000000	        -44.53414628	          8.99475254	          0.74513014	         -1.66219221	         84.26862577	        -11.83883064	         37.70331310	         87.47826138	         -7.00132756	
          3.60000000	        -44.52843123	          8.99261268	          0.74285882	         -1.66522179	         84.25220952	        -11.83748840	         37.72572167	         87.44918629	         -6.96875215	
          3.61000000	        -44.52145307	          8.99013979	          0.74195315	         -1.66851007	         84.23465763	        -11.83543800	         37.74829569	         87.41979506	         -6.93770974	
          3.62000000	        -44.51313654	          8.98737243	          0.74247459	         -1.67203351	         84.21589533	        -11.83265379	         37.77119690	         87.39007388	         -6.90836308	
          3.63000000	        -44.50339710	          8.98435375	          0.74448909	         -1.67576628	         84.19583439	        -11.82910780	         37.79461432	         87.36000149	         -6.88089300	
          3.64000000	        -44.49214068	          8.98113046	          0.74806708	         -1.67968107	         84.17437247	        -11.82476944	         37.81876353	         87.32954831	         -6.85549618	
          3.65000000	        -44.47926363	          8.97775162	          0.75328364	         -1.68374986	         84.15139263	        -11.81960530	         37.84388592	         87.29867578	         -6.83238167	
          3.66000000	        -44.46465263	          8.97426752	          0.76021872	         -1.68794474	         84.12676322	        -11.81357882	         37.87024790	         87.26733596	         -6.81176635	
          3.67000000	        -44.44818475	          8.97072841	          0.76895742	         -1.69223870	         84.10033793	        -11.80665011	         37.89813988	         87.23547139	         -6.79386956	
          3.68000000	        -44.42972751	          8.96718344	          0.77959049	         -1.69660633	         84.07195621	        -11.79877560	         37.92787511	         87.20301525	         -6.77890709	
          3.69000000	        -44.40913896	          8.96367953	          0.79221485	         -1.70102444	         84.04144388	        -11.78990785	         37.95978816	         87.16989180	         -6.76708498	
          3.70000000	        -44.38626794	          8.96026043	          0.80693415	         -1.70547259	         84.00861405	        -11.77999529	         37.99423312	         87.13601703	         -6.75859333	
          3.71000000	        -44.36095431	          8.95696590	          0.82385936	         -1.70993354	         83.97326822	        -11.76898209	         38.03158143	         87.10129954	         -6.75360054	
          3.72000000	        -44.33302937	          8.95383099	          0.84310929	         -1.71439351	         83.93519767	        -11.75680811	         38.07221938	         87.06564153	         -6.75224828	
